<?xml version="1.0" encoding="UTF-8"?>
<svg width="256px" height="256px" viewBox="0 0 256 256" version="1.1" xmlns="http://www.w3.org/2000/svg" xmlns:xlink="http://www.w3.org/1999/xlink">
    <!-- Generator: Sketch 62 (91390) - https://sketch.com -->
    <title>unit-gen</title>
    <desc>Created with Sketch.</desc>
    <defs>
        <linearGradient x1="50%" y1="0%" x2="50%" y2="100%" id="linearGradient-1">
            <stop stop-color="#E8BB18" offset="0%"></stop>
            <stop stop-color="#CC850A" offset="100%"></stop>
        </linearGradient>
        <linearGradient x1="50%" y1="0%" x2="50%" y2="100%" id="linearGradient-2">
            <stop stop-color="#EF76A0" offset="0%"></stop>
            <stop stop-color="#DA4167" offset="100%"></stop>
        </linearGradient>
        <linearGradient x1="50%" y1="0%" x2="50%" y2="100%" id="linearGradient-3">
            <stop stop-color="#E8BB18" offset="0%"></stop>
            <stop stop-color="#CC850A" offset="100%"></stop>
        </linearGradient>
        <linearGradient x1="50%" y1="0%" x2="50%" y2="100%" id="linearGradient-4">
            <stop stop-color="#EF76A0" offset="0%"></stop>
            <stop stop-color="#DA4167" offset="100%"></stop>
        </linearGradient>
        <linearGradient x1="50%" y1="0%" x2="50%" y2="100%" id="linearGradient-5">
            <stop stop-color="#48A178" offset="0%"></stop>
            <stop stop-color="#013D4F" offset="100%"></stop>
        </linearGradient>
        <linearGradient x1="50%" y1="0%" x2="50%" y2="100%" id="linearGradient-6">
            <stop stop-color="#6B9E78" offset="0%"></stop>
            <stop stop-color="#48A178" offset="100%"></stop>
        </linearGradient>
        <linearGradient x1="50%" y1="0%" x2="50%" y2="100%" id="linearGradient-7">
            <stop stop-color="#6B9E78" offset="0%"></stop>
            <stop stop-color="#48A178" offset="100%"></stop>
        </linearGradient>
    </defs>
    <g id="Page-1" stroke="none" stroke-width="1" fill="none" fill-rule="evenodd">
        <g id="unit-gen">
            <g id="Group" transform="translate(0.000000, 38.000000)" fill-rule="nonzero">
                <polygon id="Path" fill="url(#linearGradient-1)" points="143.497758 142.273684 256 142.273684 256 155.468421 143.497758 155.468421"></polygon>
                <polygon id="Path" fill="url(#linearGradient-2)" points="143.497758 161.778947 256 161.778947 256 174.973684 143.497758 174.973684"></polygon>
                <polygon id="Path" fill="url(#linearGradient-3)" points="121.686099 142.273684 134.887892 142.273684 134.887892 155.468421 121.686099 155.468421"></polygon>
                <polygon id="Path" fill="url(#linearGradient-4)" points="121.686099 161.778947 134.887892 161.778947 134.887892 174.973684 121.686099 174.973684"></polygon>
                <path d="M205.930762,0 L17.5469057,0 C17.5469057,0 -17.1221526,6.19578947 11.0034079,45.4357895 L88.95139,123.342105 L89,195 L102,186 L102.038386,116.916842 C102.038386,116.916842 19.2688788,36.0273684 17.5469057,26.0452632 C17.5469057,26.0452632 8.4778474,13.08 30.519103,13.08 C52.6751568,13.08 192.958565,13.08 192.958565,13.08 C192.958565,13.08 208.571121,16.5221053 199.502063,26.0452632 C190.318206,35.5684211 121.554081,116.916842 121.554081,116.916842 L121.554081,136.422105 L134.526278,136.422105 L134.526278,123.456842 L205.930762,39.0105263 C205.930762,39.0105263 235.433901,7.22842105 205.930762,0 Z" id="Path" fill="url(#linearGradient-5)" style="mix-blend-mode: color-dodge;"></path>
            </g>
            <path d="M154,24 C160.627417,24 166,29.4844505 166,36.2498629 C166,36.843847 165.958586,37.4279569 165.878546,37.9993479 L142.121454,37.9993479 C142.041414,37.4279569 142,36.843847 142,36.2498629 C142,29.4844505 147.372583,24 154,24 Z" id="Combined-Shape" fill="url(#linearGradient-6)" style="mix-blend-mode: darken;"></path>
            <circle id="Oval" fill="url(#linearGradient-7)" style="mix-blend-mode: darken;" cx="111.5" cy="15.5" r="15.5"></circle>
            <circle id="Oval" stroke="#011C32" stroke-width="2" fill="#013D4F" cx="109.5" cy="244.5" r="10.5"></circle>
            <circle id="Oval" stroke="#011C32" stroke-width="2" fill="#013D4F" cx="142.5" cy="233.5" r="14.5"></circle>
            <g id="Group-3" transform="translate(134.000000, 228.000000)" fill="#48A178" fill-rule="nonzero">
                <path d="M6.4,12 C5.92,12 5.6,11.84 5.28,11.52 L0.48,6.72 C-0.16,6.08 -0.16,5.12 0.48,4.48 C1.12,3.84 2.08,3.84 2.72,4.48 L7.52,9.28 C8.16,9.92 8.16,10.88 7.52,11.52 C7.2,11.84 6.88,12 6.4,12 Z" id="Path"></path>
                <path d="M6.5,12 C6.05,12 5.75,11.85 5.45,11.55 C4.85,10.95 4.85,10.05 5.45,9.45 L14.45,0.45 C15.05,-0.15 15.95,-0.15 16.55,0.45 C17.15,1.05 17.15,1.95 16.55,2.55 L7.55,11.55 C7.25,11.85 6.95,12 6.5,12 Z" id="Path"></path>
            </g>
            <g id="Group-3" transform="translate(105.000000, 242.000000)" fill="#48A178" fill-rule="nonzero">
                <path d="M4,7 C3.7,7 3.5,6.9 3.3,6.7 L0.3,3.7 C-0.1,3.3 -0.1,2.7 0.3,2.3 C0.7,1.9 1.3,1.9 1.7,2.3 L4.7,5.3 C5.1,5.7 5.1,6.3 4.7,6.7 C4.5,6.9 4.3,7 4,7 Z" id="Path"></path>
                <path d="M3.875,7 C3.6125,7 3.4375,6.9125 3.2625,6.7375 C2.9125,6.3875 2.9125,5.8625 3.2625,5.5125 L8.5125,0.2625 C8.8625,-0.0875 9.3875,-0.0875 9.7375,0.2625 C10.0875,0.6125 10.0875,1.1375 9.7375,1.4875 L4.4875,6.7375 C4.3125,6.9125 4.1375,7 3.875,7 Z" id="Path"></path>
            </g>
            <circle id="Oval" fill="url(#linearGradient-7)" style="mix-blend-mode: darken;" cx="62" cy="24" r="9"></circle>
        </g>
    </g>
</svg>