<?xml version="1.0" encoding="UTF-8"?>
<svg width="1204px" height="557px" viewBox="0 0 1204 557" version="1.1" xmlns="http://www.w3.org/2000/svg" xmlns:xlink="http://www.w3.org/1999/xlink">
    <title>UnitGen Workflow</title>
    <desc>Created with Sketch.</desc>
    <defs>
        <rect id="path-1" x="0" y="0" width="170" height="50"></rect>
        <rect id="path-3" x="0" y="0" width="170" height="50"></rect>
        <rect id="path-5" x="0" y="0" width="170" height="50"></rect>
    </defs>
    <g id="Page-1" stroke="none" stroke-width="1" fill="none" fill-rule="evenodd">
        <g id="Group-2">
            <g id="Group" transform="translate(68.000000, 0.000000)">
                <rect id="Rectangle" fill="#011C32" fill-rule="nonzero" x="0" y="0" width="64" height="64"></rect>
                <g id="&lt;/&gt;" transform="translate(13.000000, 19.000000)" fill="#FFFFFF" font-family="Comfortaa-Regular, Comfortaa" font-size="24" font-weight="normal">
                    <g id="Group">
                        <text id="&lt;/&gt;">
                            <tspan x="0.244" y="21">&lt;/&gt;</tspan>
                        </text>
                    </g>
                </g>
            </g>
            <text id="code" fill="#011C32" font-family="Comfortaa-Regular, Comfortaa" font-size="18" font-weight="normal">
                <tspan x="148" y="28">code</tspan>
            </text>
            <text id="repository" fill="#011C32" font-family="Comfortaa-Regular, Comfortaa" font-size="18" font-weight="normal">
                <tspan x="148" y="48">repository</tspan>
            </text>
            <polygon id="Line" fill="#6D7278" fill-rule="nonzero" points="102 196 102 266.773 108.192637 255.764608 108.928029 254.457245 111.542755 255.928029 110.807363 257.235392 101.807363 273.235392 100.5 275.559593 99.1926367 273.235392 90.1926367 257.235392 89.4572448 255.928029 92.0719714 254.457245 92.8073633 255.764608 99 266.773 99 196"></polygon>
            <polygon id="Line" fill="#6D7278" fill-rule="nonzero" points="1119.47015 102.440516 1120.79457 104.755042 1129.91197 120.688435 1130.65695 121.990356 1128.05311 123.480325 1127.30813 122.178405 1121.034 111.215 1121.11015 121.474464 1121.99996 242.488971 1122.01099 243.98893 1119.01107 244.010989 1119.00004 242.511029 1118.11023 121.496523 1118.035 111.235 1111.92327 122.291528 1111.19751 123.604264 1108.57204 122.152745 1109.2978 120.84001 1118.17991 104.774268"></polygon>
            <polygon id="Line" fill="#6D7278" fill-rule="nonzero" points="101.990769 61.9908259 101.999972 63.4907977 102.408021 130.002903 102.47 140.264 108.595958 129.217711 109.323315 127.905861 111.947016 129.360576 111.219658 130.672426 102.317985 146.727339 101.024905 149.059517 99.7033077 146.74338 90.6053194 130.798894 89.8619209 129.496067 92.4675752 128.00927 93.2109737 129.312097 99.47 140.282 99.408078 130.021308 99.0000282 63.5092023 98.9908259 62.0092305"></polygon>
            <polygon id="Line" fill="#6D7278" fill-rule="nonzero" points="101.5 323.5 101.5 394.273 107.692637 383.264608 108.428029 381.957245 111.042755 383.428029 110.307363 384.735392 101.307363 400.735392 100 403.059593 98.6926367 400.735392 89.6926367 384.735392 88.9572448 383.428029 91.5719714 381.957245 92.3073633 383.264608 98.5 394.273 98.5 323.5"></polygon>
            <polygon id="Line" fill="#6D7278" fill-rule="nonzero" points="540.77188 461.680806 542.089614 462.397448 558.21654 471.167981 560.559179 472.442012 558.25389 473.782441 542.38408 483.010071 541.087355 483.764063 539.579372 481.170612 540.876097 480.41662 551.795 474.067 541.549585 474.21373 486.521426 474.999847 485.021579 475.021273 484.978727 472.021579 486.478574 472.000153 541.506732 471.214036 551.752 471.067 540.65633 465.032917 539.338596 464.316274"></polygon>
            <text id="(complexity,-bytes,-tokens)" fill="#011C32" font-family="Comfortaa-Regular, Comfortaa" font-size="12" font-weight="normal">
                <tspan x="112" y="217">(complexity, bytes, tokens)</tspan>
            </text>
            <text id="(tokens)" fill="#011C32" font-family="Comfortaa-Regular, Comfortaa" font-size="12" font-weight="normal">
                <tspan x="1155" y="307">(tokens)</tspan>
            </text>
            <rect id="Rectangle" fill="#48A178" fill-rule="nonzero" x="0" y="277" width="200" height="48"></rect>
            <text id="ContextStrategy" fill="#FFFFFF" font-family="Comfortaa-Regular, Comfortaa" font-size="18" font-weight="normal">
                <tspan x="24" y="307">ContextStrategy</tspan>
            </text>
            <rect id="Rectangle" fill="#DA4167" fill-rule="nonzero" x="1" y="149" width="200" height="48"></rect>
            <text id="Pre-Quality" fill="#FFFFFF" font-family="Comfortaa-Regular, Comfortaa" font-size="18" font-weight="normal">
                <tspan x="49.161" y="169">Pre-Quality</tspan>
            </text>
            <text id="Threshold" fill="#FFFFFF" font-family="Comfortaa-Regular, Comfortaa" font-size="18" font-weight="normal">
                <tspan x="54.426" y="189">Threshold</tspan>
            </text>
            <rect id="Rectangle" fill="#48A178" fill-rule="nonzero" x="0" y="405" width="200" height="48"></rect>
            <rect id="Rectangle" fill="#48A178" fill-rule="nonzero" x="345" y="246" width="141" height="48"></rect>
            <rect id="Rectangle" fill="#48A178" fill-rule="nonzero" x="346" y="63" width="141" height="48"></rect>
            <text id="Scene-.." fill="#FFFFFF" font-family="Comfortaa-Bold, Comfortaa" font-size="14" font-weight="bold">
                <tspan x="389" y="90">Scene ..</tspan>
            </text>
            <text id="Completion" fill="#FFFFFF" font-family="Comfortaa-Bold, Comfortaa" font-size="14" font-weight="bold">
                <tspan x="374.482" y="267">Completion</tspan>
            </text>
            <text id="(CRUD-Code)" fill="#FFFFFF" font-family="Comfortaa-Bold, Comfortaa" font-size="10" font-weight="bold">
                <tspan x="383.74" y="282">(CRUD Code)</tspan>
            </text>
            <rect id="Rectangle" fill="#48A178" fill-rule="nonzero" x="345" y="449" width="141" height="48"></rect>
            <text id="TestGen" fill="#FFFFFF" font-family="Comfortaa-Bold, Comfortaa" font-size="14" font-weight="bold">
                <tspan x="385.358" y="477">TestGen</tspan>
            </text>
            <text id="BuilderType" fill="#FFFFFF" font-family="Comfortaa-Regular, Comfortaa" font-size="18" font-weight="normal">
                <tspan x="45.286" y="435">BuilderType</tspan>
            </text>
            <g id="Group" transform="translate(560.000000, 111.000000)">
                <rect id="Rectangle" fill="#013D4F" fill-rule="nonzero" x="0" y="0" width="168" height="48"></rect>
                <g id="Controller" transform="translate(48.000000, 18.000000)" fill="#FFFFFF" font-family="Comfortaa-Regular, Comfortaa" font-size="14" font-weight="normal">
                    <g id="Group">
                        <text id="Controller">
                            <tspan x="0.435" y="12">Controller</tspan>
                        </text>
                    </g>
                </g>
            </g>
            <g id="Group" transform="translate(768.000000, 111.000000)">
                <rect id="Rectangle" fill="#DA4167" fill-rule="nonzero" x="0" y="0" width="168" height="48"></rect>
                <g id="API-Rule-Checker" transform="translate(54.000000, 9.000000)" fill="#FFFFFF" font-family="Comfortaa-Regular, Comfortaa" font-size="14" font-weight="normal">
                    <g id="API-Rule" transform="translate(1.000000, 0.000000)">
                        <text>
                            <tspan x="0.961" y="12">API Rule</tspan>
                        </text>
                    </g>
                    <g id="Checker" transform="translate(0.000000, 15.000000)">
                        <text>
                            <tspan x="0.414" y="12">Checker</tspan>
                        </text>
                    </g>
                </g>
            </g>
            <g id="Group" transform="translate(767.000000, 176.000000)">
                <g id="Rectangle" opacity="0.5">
                    <g id="path-1-Clipped">
                        <g>
                            <mask id="mask-2" fill="white">
                                <use xlink:href="#path-1"></use>
                            </mask>
                            <g id="path-1"></g>
                            <rect id="path-1" stroke="#011C32" stroke-width="2" fill="#DA4167" fill-rule="nonzero" mask="url(#mask-2)" x="1" y="1" width="168" height="48"></rect>
                        </g>
                    </g>
                </g>
                <g id="Service-Rule-Checker" transform="translate(41.000000, 10.000000)" fill="#FFFFFF" font-family="Comfortaa-Regular, Comfortaa" font-size="14" font-weight="normal">
                    <g id="Service-Rule">
                        <text>
                            <tspan x="0.117" y="12">Service Rule</tspan>
                        </text>
                    </g>
                    <g id="Checker" transform="translate(13.000000, 15.000000)">
                        <text>
                            <tspan x="0.914" y="12">Checker</tspan>
                        </text>
                    </g>
                </g>
            </g>
            <g id="Group" transform="translate(768.000000, 242.000000)">
                <rect id="Rectangle" fill="#DA4167" fill-rule="nonzero" x="0" y="0" width="168" height="48"></rect>
                <g id="SQL-Rule-Checker" transform="translate(51.000000, 9.000000)" fill="#FFFFFF" font-family="Comfortaa-Regular, Comfortaa" font-size="14" font-weight="normal">
                    <g id="SQL-Rule">
                        <text>
                            <tspan x="0.1" y="12">SQL Rule</tspan>
                        </text>
                    </g>
                    <g id="Checker" transform="translate(2.000000, 15.000000)">
                        <text>
                            <tspan x="0.914" y="12">Checker</tspan>
                        </text>
                    </g>
                </g>
            </g>
            <g id="Group" transform="translate(1036.000000, 242.000000)">
                <rect id="Rectangle" fill="#DA4167" fill-rule="nonzero" x="0" y="0" width="168" height="48"></rect>
                <g id="Post-Quality-Thresho" transform="translate(39.000000, 9.000000)" fill="#FFFFFF" font-family="Comfortaa-Regular, Comfortaa" font-size="14" font-weight="normal">
                    <g id="Post-Quality">
                        <text>
                            <tspan x="0.081" y="12">Post-Quality</tspan>
                        </text>
                    </g>
                    <g id="Threshold" transform="translate(8.000000, 15.000000)">
                        <text>
                            <tspan x="-0.002" y="12">Threshold</tspan>
                        </text>
                    </g>
                </g>
            </g>
            <g id="Group" transform="translate(1026.000000, 58.000000)">
                <rect id="Rectangle" fill="#011C32" fill-rule="nonzero" x="0" y="0" width="168" height="48"></rect>
                <g id="Datasets" transform="translate(51.000000, 17.000000)" fill="#FFFFFF" font-family="Comfortaa-Regular, Comfortaa" font-size="14" font-weight="normal">
                    <g id="Group">
                        <text id="Datasets">
                            <tspan x="0.66" y="12">Datasets</tspan>
                        </text>
                    </g>
                </g>
            </g>
            <g id="Group" transform="translate(767.000000, 305.000000)">
                <g id="Rectangle" opacity="0.5">
                    <g id="path-3-Clipped">
                        <g>
                            <mask id="mask-4" fill="white">
                                <use xlink:href="#path-3"></use>
                            </mask>
                            <g id="path-5"></g>
                            <rect id="path-3" stroke="#011C32" stroke-width="2" fill="#DA4167" fill-rule="nonzero" mask="url(#mask-4)" x="1" y="1" width="168" height="48"></rect>
                        </g>
                    </g>
                </g>
                <g id="Exception-Rule-Check" transform="translate(31.000000, 10.000000)" fill="#FFFFFF" font-family="Comfortaa-Regular, Comfortaa" font-size="14" font-weight="normal">
                    <g id="Exception-Rule">
                        <text>
                            <tspan x="0.705" y="12">Exception Rule</tspan>
                        </text>
                    </g>
                    <g id="Checker" transform="translate(24.000000, 15.000000)">
                        <text>
                            <tspan x="0.414" y="12">Checker</tspan>
                        </text>
                    </g>
                </g>
            </g>
            <g id="Group" transform="translate(767.000000, 367.000000)">
                <g id="Rectangle" opacity="0.5">
                    <g id="path-5-Clipped">
                        <g>
                            <mask id="mask-6" fill="white">
                                <use xlink:href="#path-5"></use>
                            </mask>
                            <g id="path-9"></g>
                            <polygon id="path-5" stroke="#011C32" stroke-width="2" fill="#DA4167" fill-rule="nonzero" mask="url(#mask-6)" points="1 1 169 1 169 49 1 49"></polygon>
                        </g>
                    </g>
                </g>
                <g id="…" transform="translate(80.000000, 18.000000)" fill="#FFFFFF" font-family="Comfortaa-Regular, Comfortaa" font-size="14" font-weight="normal">
                    <g id="Group">
                        <text id="…">
                            <tspan x="0.579" y="12">…</tspan>
                        </text>
                    </g>
                </g>
            </g>
            <g id="Group-3" transform="translate(560.000000, 177.000000)">
                <rect id="Rectangle" fill="#013D4F" fill-rule="nonzero" x="0" y="0" width="168" height="48"></rect>
                <g id="Service" transform="translate(58.000000, 18.000000)" fill="#FFFFFF" font-family="Comfortaa-Regular, Comfortaa" font-size="14" font-weight="normal">
                    <g id="Group">
                        <text id="Service">
                            <tspan x="0.505" y="12">Service</tspan>
                        </text>
                    </g>
                </g>
            </g>
            <g id="Group-5" transform="translate(560.000000, 242.000000)">
                <g id="Rectangle-2" fill="#013D4F" fill-rule="nonzero">
                    <rect id="Rectangle" x="0" y="0" width="168" height="48"></rect>
                </g>
                <g id="Repository" transform="translate(46.000000, 18.000000)" fill="#FFFFFF" font-family="Comfortaa-Regular, Comfortaa" font-size="14" font-weight="normal">
                    <g id="Group">
                        <text id="Repository">
                            <tspan x="0.297" y="12">Repository</tspan>
                        </text>
                    </g>
                </g>
            </g>
            <g id="Group-6" transform="translate(560.000000, 305.000000)">
                <rect id="Rectangle" fill="#013D4F" fill-rule="nonzero" x="0" y="0" width="168" height="48"></rect>
                <g id="Exception" transform="translate(49.000000, 18.000000)" fill="#FFFFFF" font-family="Comfortaa-Regular, Comfortaa" font-size="14" font-weight="normal">
                    <g id="Group">
                        <text id="Exception">
                            <tspan x="0.093" y="12">Exception</tspan>
                        </text>
                    </g>
                </g>
            </g>
            <g id="Group-4" transform="translate(560.000000, 368.000000)">
                <rect id="Rectangle" fill="#013D4F" fill-rule="nonzero" x="0" y="0" width="168" height="48"></rect>
                <g id="…" transform="translate(80.000000, 14.000000)" fill="#FFFFFF" font-family="Comfortaa-Regular, Comfortaa" font-size="18" font-weight="normal">
                    <g id="Group">
                        <text id="…">
                            <tspan x="0" y="16">…</tspan>
                        </text>
                    </g>
                </g>
            </g>
            <g id="Group-4" transform="translate(560.000000, 449.000000)">
                <rect id="Rectangle" fill="#DA4167" fill-rule="nonzero" x="0" y="0" width="168" height="48"></rect>
                <g id="Tests" transform="translate(65.000000, 18.000000)" fill="#FFFFFF" font-family="Comfortaa-Regular, Comfortaa" font-size="14" font-weight="normal">
                    <g id="Group">
                        <text id="Tests">
                            <tspan x="0.757" y="12">Tests</tspan>
                        </text>
                    </g>
                </g>
            </g>
            <text id="--SimilarChunk" fill="#011C32" font-family="Comfortaa-Regular, Comfortaa" font-size="16" font-weight="normal">
                <tspan x="112" y="358">- SimilarChunk</tspan>
            </text>
            <text id="--RelatedCode" fill="#011C32" font-family="Comfortaa-Regular, Comfortaa" font-size="16" font-weight="normal">
                <tspan x="112" y="376">- RelatedCode</tspan>
            </text>
            <text id="--InlineCompletion" fill="#011C32" font-family="Comfortaa-Regular, Comfortaa" font-size="16" font-weight="normal">
                <tspan x="2" y="484">- InlineCompletion</tspan>
            </text>
            <text id="--AfterBlockCompletion" fill="#011C32" font-family="Comfortaa-Regular, Comfortaa" font-size="16" font-weight="normal">
                <tspan x="2" y="502">- AfterBlockCompletion</tspan>
            </text>
            <text id="--InlineBlockCompletion" fill="#011C32" font-family="Comfortaa-Regular, Comfortaa" font-size="16" font-weight="normal">
                <tspan x="2" y="520">- InlineBlockCompletion</tspan>
            </text>
            <text id="--TestCodeGen" fill="#011C32" font-family="Comfortaa-Regular, Comfortaa" font-size="16" font-weight="normal">
                <tspan x="2" y="538">- TestCodeGen</tspan>
            </text>
            <text id="--Documentation" fill="#011C32" font-family="Comfortaa-Regular, Comfortaa" font-size="16" font-weight="normal">
                <tspan x="2" y="556">- Documentation</tspan>
            </text>
            <text id="ArchGuard-CodeSmell*" fill="#011C32" font-family="Comfortaa-Bold, Comfortaa" font-size="14" font-weight="bold">
                <tspan x="560" y="94">ArchGuard CodeSmell*</tspan>
            </text>
            <text id="ArchGuard-Linter*" fill="#011C32" font-family="Comfortaa-Bold, Comfortaa" font-size="14" font-weight="bold">
                <tspan x="787.439" y="94">ArchGuard Linter*</tspan>
            </text>
            <text id="ArchGuard-TestCodeSmell*" fill="#011C32" font-family="Comfortaa-Bold, Comfortaa" font-size="14" font-weight="bold">
                <tspan x="560" y="520">ArchGuard TestCodeSmell*</tspan>
            </text>
            <polygon id="Line-3" fill="#6D7278" fill-rule="nonzero" points="562.487707 125.949016 562.504878 128.615627 562.623083 146.972806 562.632741 148.472775 559.632804 148.492092 559.623145 146.992123 559.541 134.362 554.57848 143.319294 487.312071 264.726958 486.585113 266.03903 483.96097 264.585113 484.687929 263.273042 551.954338 141.865377 556.917 132.907 546.165427 139.53582 544.88857 140.32299 543.31423 137.769276 544.591087 136.982106 560.217739 127.348429"></polygon>
            <polygon id="Line-3" fill="#6D7278" fill-rule="nonzero" points="562.487707 125.949016 562.504878 128.615627 562.623083 146.972806 562.632741 148.472775 559.632804 148.492092 559.623145 146.992123 559.541 134.362 554.57848 143.319294 487.312071 264.726958 486.585113 266.03903 483.96097 264.585113 484.687929 263.273042 551.954338 141.865377 556.917 132.907 546.165427 139.53582 544.88857 140.32299 543.31423 137.769276 544.591087 136.982106 560.217739 127.348429"></polygon>
            <polygon id="Line-3" fill="#6D7278" fill-rule="nonzero" points="563.571931 198.82275 562.686981 201.338297 556.594912 218.655534 556.097127 220.070529 553.267137 219.07496 553.764922 217.659965 557.956 205.744 550.306103 212.456416 487.989231 267.127574 486.861657 268.116804 484.883196 265.861657 486.010769 264.872426 548.327642 210.201269 555.978 203.489 543.618532 206.094612 542.150785 206.403995 541.532018 203.468501 542.999765 203.159117 560.962603 199.372766"></polygon>
            <polygon id="Line-3" fill="#6D7278" fill-rule="nonzero" points="545.023757 255.3516 546.326089 256.095866 562.264513 265.204469 564.57977 266.527608 562.246731 267.819135 546.185895 276.710116 544.873561 277.4366 543.420593 274.811931 544.732927 274.085447 555.784 267.967 545.523487 267.898044 486.989799 267.499965 485.489834 267.489764 485.510236 264.489834 487.010201 264.500035 545.54389 264.898113 555.803 264.967 544.837558 258.70053 543.535226 257.956264"></polygon>
            <polygon id="Line-3" fill="#6D7278" fill-rule="nonzero" points="485.813549 264.886889 486.96333 265.850219 549.553394 318.290543 557.34 324.814 552.878864 312.997855 552.349026 311.594548 555.155642 310.534873 555.685479 311.93818 562.169828 329.112382 563.111761 331.607151 560.490599 331.116624 542.446292 327.73979 540.971888 327.463869 541.523732 324.515061 542.998136 324.790982 555.412 327.113 547.626734 320.590105 485.03667 268.149781 483.886889 267.186451"></polygon>
            <polygon id="Line-3" fill="#6D7278" fill-rule="nonzero" points="486.516681 265.942565 487.287058 267.229623 554.118555 378.884093 559.38 387.675 559.039396 375.047601 558.998949 373.548147 561.997858 373.467253 562.038305 374.966707 562.53331 393.317592 562.605215 395.983289 560.289772 394.660476 544.350067 385.554115 543.047631 384.810032 544.535796 382.205159 545.838233 382.949242 556.805 389.214 551.544438 380.424847 484.712942 268.770377 483.942565 267.483319"></polygon>
            <polygon id="Line-3" fill="#6D7278" fill-rule="nonzero" points="1120 285.940407 1121.30736 288.264608 1130.30736 304.264608 1131.04276 305.571971 1128.42803 307.042755 1127.69264 305.735392 1121.499 294.724 1121.5 474.5 726.5 474.5 726.5 471.5 1118.499 471.5 1118.499 294.727 1112.30736 305.735392 1111.57197 307.042755 1108.95724 305.571971 1109.69264 304.264608 1118.69264 288.264608"></polygon>
            <polygon id="Line-4" fill="#6D7278" fill-rule="nonzero" points="748.428029 255.957245 749.735392 256.692637 765.735392 265.692637 768.059593 267 765.735392 268.307363 749.735392 277.307363 748.428029 278.042755 746.957245 275.428029 748.264608 274.692637 759.273 268.5 726.5 268.5 726.5 265.5 759.273 265.5 748.264608 259.307363 746.957245 258.571971"></polygon>
            <polygon id="Line-4" fill="#6D7278" fill-rule="nonzero" points="1016.42803 255.957245 1017.73539 256.692637 1033.73539 265.692637 1036.05959 267 1033.73539 268.307363 1017.73539 277.307363 1016.42803 278.042755 1014.95724 275.428029 1016.26461 274.692637 1027.273 268.5 934.5 268.5 934.5 265.5 1027.273 265.5 1016.26461 259.307363 1014.95724 258.571971"></polygon>
            <polygon id="Line-4" fill="#6D7278" fill-rule="nonzero" points="936.330847 132.904638 937.213104 134.117742 1024.46312 254.08651 1030.433 262.295 1028.9662 249.74963 1028.79198 248.259781 1031.77168 247.911349 1031.9459 249.401197 1034.07802 267.63452 1034.38774 270.28314 1031.9634 269.172428 1015.27402 261.526196 1013.91033 260.901421 1015.15988 258.174037 1016.52357 258.798812 1028.007 264.061 1022.03691 255.851025 934.786896 135.882258 933.904638 134.669153"></polygon>
            <polygon id="Line-4" fill="#6D7278" fill-rule="nonzero" points="938.64486 198.908619 939.868121 199.776739 1020.73172 257.16381 1029.013 263.04 1023.61977 251.619789 1022.97921 250.263439 1025.69191 248.982322 1026.33247 250.338672 1034.17186 266.938189 1035.31063 269.349477 1032.65859 269.070517 1014.40175 267.150129 1012.90998 266.993214 1013.22382 264.009674 1014.71559 264.166589 1027.276 265.487 1018.99548 259.610331 938.131879 202.223261 936.908619 201.35514"></polygon>
            <polygon id="Line-4" fill="#6D7278" fill-rule="nonzero" points="1035.39401 264.772678 1034.16816 267.140884 1025.72931 283.443819 1025.03976 284.775935 1022.37553 283.396853 1023.06507 282.064737 1028.87 270.847 1020.35567 276.435746 936.822985 331.254072 935.568913 332.077057 933.922943 329.568913 935.177015 328.745928 1018.7097 273.927603 1027.225 268.338 1014.62384 269.201911 1013.12735 269.304382 1012.92241 266.31139 1014.4189 266.20892 1032.73358 264.954848"></polygon>
            <polygon id="Line-4" fill="#6D7278" fill-rule="nonzero" points="1035.39401 264.772678 1034.16816 267.140884 1025.72931 283.443819 1025.03976 284.775935 1022.37553 283.396853 1023.06507 282.064737 1028.87 270.847 1020.35567 276.435746 936.822985 331.254072 935.568913 332.077057 933.922943 329.568913 935.177015 328.745928 1018.7097 273.927603 1027.225 268.338 1014.62384 269.201911 1013.12735 269.304382 1012.92241 266.31139 1014.4189 266.20892 1032.73358 264.954848"></polygon>
            <polygon id="Line-4" fill="#6D7278" fill-rule="nonzero" points="748.428029 318.957245 749.735392 319.692637 765.735392 328.692637 768.059593 330 765.735392 331.307363 749.735392 340.307363 748.428029 341.042755 746.957245 338.428029 748.264608 337.692637 759.273 331.5 726.5 331.5 726.5 328.5 759.273 328.5 748.264608 322.307363 746.957245 321.571971"></polygon>
            <polygon id="Line-4" fill="#6D7278" fill-rule="nonzero" points="748.428029 380.957245 749.735392 381.692637 765.735392 390.692637 768.059593 392 765.735392 393.307363 749.735392 402.307363 748.428029 403.042755 746.957245 400.428029 748.264608 399.692637 759.273 393.5 726.5 393.5 726.5 390.5 759.273 390.5 748.264608 384.307363 746.957245 383.571971"></polygon>
            <polygon id="Line-4" fill="#6D7278" fill-rule="nonzero" points="748.428029 189.957245 749.735392 190.692637 765.735392 199.692637 768.059593 201 765.735392 202.307363 749.735392 211.307363 748.428029 212.042755 746.957245 209.428029 748.264608 208.692637 759.273 202.5 726.5 202.5 726.5 199.5 759.273 199.5 748.264608 193.307363 746.957245 192.571971"></polygon>
            <polygon id="Line-4" fill="#6D7278" fill-rule="nonzero" points="748.428029 123.957245 749.735392 124.692637 765.735392 133.692637 768.059593 135 765.735392 136.307363 749.735392 145.307363 748.428029 146.042755 746.957245 143.428029 748.264608 142.692637 759.272 136.5 726.5 136.5 726.5 133.5 759.275 133.5 748.264608 127.307363 746.957245 126.571971"></polygon>
            <polygon id="Line-2" fill="#6D7278" fill-rule="nonzero" points="347.067564 81.7552648 347.376066 84.4040262 349.499826 102.638325 349.673359 104.128253 346.693502 104.475319 346.519969 102.98539 345.058 90.439 341.141102 99.7975439 202.883661 430.079207 202.304454 431.462869 199.537131 430.304454 200.116339 428.920793 338.373779 98.6391296 342.292 89.279 332.327962 97.0445504 331.144784 97.9665531 329.300779 95.6001964 330.483957 94.6781937 344.964135 83.3943807"></polygon>
            <polygon id="Line-2" fill="#6D7278" fill-rule="nonzero" points="348.197047 264.465822 347.630067 267.071517 343.72693 285.009341 343.408003 286.475044 340.476597 285.837191 340.795523 284.371488 343.481 272.028 336.715144 279.640761 202.621114 430.496546 201.624568 431.61766 199.38234 429.624568 200.378886 428.503454 334.472917 277.64767 341.238 270.036 329.296426 274.150069 327.878223 274.638637 326.901087 271.802229 328.319291 271.313662 345.675796 265.334387"></polygon>
            <polygon id="Line-2" fill="#6D7278" fill-rule="nonzero" points="1036 262.151838 1035.61138 264.162792 1032.93611 278.006369 1032.71751 279.13753 1030.70828 278.645265 1030.92688 277.514103 1032.76755 267.987975 1028.13012 273.863149 936.219908 390.286614 935.536859 391.151838 934 389.613662 934.683049 388.748439 1026.59326 272.324974 1031.23016 266.450642 1023.04521 269.625689 1022.07315 270.002743 1021.40341 267.813735 1022.37547 267.436682 1034.27189 262.822156"></polygon>
            <polygon id="Line-2" fill="#6D7278" fill-rule="nonzero" points="200.468095 427.646578 201.910758 428.057337 331.511915 464.957666 341.364 467.762 332.472627 458.792448 331.416616 457.727159 333.547194 455.615137 334.603205 456.680425 347.527064 469.717828 349.404418 471.611674 346.811051 472.232608 328.958091 476.507166 327.499322 476.856441 326.800772 473.938903 328.259541 473.589628 340.545 470.648 330.690398 467.842993 201.089242 430.942663 199.646578 430.531905"></polygon>
        </g>
    </g>
</svg>